<svg version="1.1" id="Layer_1" xmlns="http://www.w3.org/2000/svg" xmlns:xlink="http://www.w3.org/1999/xlink" x="0px" y="0px"
	 width="100%" viewBox="0 0 1205 504" enable-background="new 0 0 1205 504" xml:space="preserve">
<path fill="#FFFFFF" opacity="1.000000" stroke="none" 
	d="
M778.000000,505.000000 
	C518.666687,505.000000 259.833405,505.000000 1.000069,505.000000 
	C1.000046,337.000061 1.000046,169.000107 1.000023,1.000076 
	C201.833252,1.000000 402.666504,1.000000 603.499756,1.000000 
	C804.333069,1.000000 1005.166443,1.000000 1205.999756,1.000000 
	C1205.999878,168.999878 1205.999878,336.999756 1206.000000,504.999817 
	C1063.500000,505.000000 921.000000,505.000000 778.000000,505.000000 
M204.999725,75.503593 
	C186.458069,77.131454 168.802048,82.139549 151.519363,88.925644 
	C110.574379,105.002792 79.767159,132.777527 59.264988,171.235626 
	C37.540230,211.987045 33.103382,255.501099 45.095135,300.051575 
	C59.759670,354.531647 93.373596,393.741821 144.463715,417.513306 
	C180.843201,434.440125 219.017426,438.526154 257.969757,428.758484 
	C302.078308,417.697876 337.790100,393.514069 363.555908,355.799408 
	C390.478851,316.391022 399.935883,272.634521 392.561188,225.605637 
	C387.037842,190.382950 372.280823,159.318741 347.236053,133.514435 
	C342.273712,128.401596 342.202759,128.338989 336.313507,132.639862 
	C328.792542,138.132355 320.603516,139.855103 311.800598,136.722565 
	C296.389862,131.238617 289.495789,116.932137 294.621155,100.447021 
	C295.985931,96.057365 295.000092,94.173111 291.164581,92.376122 
	C264.129730,79.709976 235.788559,73.744560 204.999725,75.503593 
M552.464478,208.984818 
	C546.260437,207.925537 540.069824,206.050507 533.849976,205.947495 
	C506.207184,205.489624 478.556061,205.514648 450.907745,205.420517 
	C442.563782,205.392105 441.042145,206.988266 441.039032,215.381027 
	C441.028625,243.700089 441.028381,272.019135 441.040710,300.338196 
	C441.044220,308.386871 442.649628,310.001678 450.634186,310.005249 
	C476.287933,310.016693 501.942810,310.142914 527.594604,309.919830 
	C534.379822,309.860809 541.252991,309.211487 547.912903,307.933014 
	C558.236023,305.951294 566.487183,300.773834 570.001831,290.128571 
	C572.029419,283.987122 572.125122,277.771545 570.375244,271.491119 
	C568.549500,264.938843 563.710999,261.151154 557.979492,258.054657 
	C566.159302,251.773407 567.706787,249.805603 569.320862,243.808502 
	C573.563782,228.043015 567.892883,215.840240 552.464478,208.984818 
M891.464050,287.942169 
	C888.995850,291.691406 886.128296,295.251770 884.227722,299.269501 
	C883.276123,301.281097 883.159607,304.706879 884.273010,306.488586 
	C887.880676,312.262085 896.312134,312.011383 900.081909,306.348022 
	C904.592285,299.572205 908.840393,292.617645 913.499390,285.948212 
	C914.502197,284.512695 916.769104,283.143494 918.463989,283.131042 
	C942.949524,282.950745 967.437439,282.942474 991.922729,283.138062 
	C993.771973,283.152832 996.206970,284.577087 997.343872,286.107910 
	C1002.295349,292.775238 1006.794678,299.775879 1011.600708,306.554443 
	C1015.165527,311.582336 1020.752075,312.187103 1025.995972,308.342194 
	C1030.076660,305.350220 1030.166260,302.546112 1026.172974,296.833069 
	C1006.271729,268.360199 986.371887,239.886185 966.411072,211.455032 
	C959.927124,202.219604 947.747070,202.502304 941.473816,212.006592 
	C924.911011,237.099899 908.410400,262.234253 891.464050,287.942169 
M1123.477173,310.508148 
	C1125.463867,310.327911 1127.700073,310.654846 1129.371216,309.832916 
	C1131.256470,308.905701 1133.620239,307.132233 1133.952515,305.380798 
	C1134.281494,303.647339 1132.660034,301.208862 1131.288818,299.593414 
	C1130.188965,298.297791 1128.203491,297.730988 1126.576416,296.909271 
	C1109.977539,288.525665 1093.368530,280.161957 1076.772339,271.772949 
	C1075.226440,270.991547 1073.748901,270.074707 1071.699951,268.915405 
	C1076.346069,266.414398 1080.374512,264.207184 1084.437500,262.065857 
	C1098.966797,254.408585 1113.517090,246.791077 1128.036621,239.115234 
	C1130.850220,237.627716 1134.040405,236.037964 1132.945190,232.056458 
	C1131.822021,227.973175 1128.191162,227.527527 1124.832275,228.144119 
	C1120.177368,228.998642 1115.313843,229.825684 1111.118164,231.858337 
	C1100.224243,237.135971 1089.655884,243.084015 1078.938965,248.729050 
	C1071.521240,252.636246 1064.072510,256.484436 1056.004395,260.688965 
	C1056.004395,258.287079 1056.004395,256.678131 1056.004395,255.069199 
	C1056.004395,241.080200 1056.053101,227.090973 1055.982666,213.102325 
	C1055.949951,206.582581 1054.081055,205.011200 1046.914429,205.002548 
	C1039.756226,204.993912 1037.926270,206.530258 1037.865845,213.103394 
	C1037.771118,223.429077 1037.837524,233.756226 1037.837769,244.082764 
	C1037.838013,263.236176 1037.766113,282.390259 1037.931519,301.542236 
	C1037.952881,304.016663 1038.728394,308.288483 1039.976196,308.618195 
	C1044.112549,309.711243 1048.769653,310.083191 1052.915283,309.225311 
	C1054.401123,308.917847 1055.725220,304.364075 1055.866089,301.682251 
	C1056.262207,294.143616 1056.004395,286.570648 1056.004395,278.381592 
	C1058.504395,279.588867 1060.284424,280.379700 1062.001953,281.288757 
	C1078.131348,289.825378 1094.178955,298.521393 1110.425659,306.828339 
	C1114.150146,308.732697 1118.548950,309.318146 1123.477173,310.508148 
M843.362915,295.456421 
	C822.204956,295.460724 801.046814,295.427063 779.889038,295.493561 
	C773.915894,295.512329 772.502075,297.062592 772.457703,302.908722 
	C772.417114,308.254303 774.102600,309.996277 779.675232,309.997528 
	C800.668518,310.002228 821.669983,310.268829 842.650574,309.735931 
	C849.666748,309.557709 856.845215,307.951904 863.561890,305.792664 
	C871.831238,303.134277 876.541443,296.958954 876.976746,287.887756 
	C877.436096,278.315735 875.119507,269.900848 865.471252,266.251831 
	C859.059570,263.826935 852.036072,262.334778 845.191589,261.892242 
	C833.574402,261.141144 821.878418,261.697601 810.223450,261.397888 
	C805.275513,261.270630 800.295410,260.644501 795.427979,259.725769 
	C791.963379,259.071808 790.275024,256.462280 790.206726,252.779541 
	C790.104126,247.247971 792.409241,244.408096 798.686157,244.010071 
	C807.318970,243.462646 815.993774,243.591125 824.631042,243.091324 
	C826.679016,242.972794 829.585815,242.069931 830.490967,240.562881 
	C834.185791,234.411270 830.556274,228.525864 823.431091,228.471207 
	C820.432129,228.448212 817.414062,228.250748 814.437378,228.509186 
	C805.529541,229.282578 796.454224,229.415329 787.787048,231.341064 
	C777.287720,233.673843 772.098145,241.529984 772.065613,252.181091 
	C772.033264,262.773468 776.961975,269.542755 787.473633,272.758453 
	C791.257751,273.916077 795.230042,274.891174 799.156372,275.069031 
	C810.296875,275.573578 821.459717,275.561707 832.610229,275.877563 
	C838.589600,276.046967 844.614258,276.084351 850.522888,276.885986 
	C857.066895,277.773804 858.451416,279.829224 858.389282,286.131653 
	C858.334229,291.720398 856.583374,293.618683 850.270752,294.717346 
	C848.306702,295.059204 846.299805,295.155212 843.362915,295.456421 
M661.251953,295.147156 
	C646.271667,295.122162 631.290771,295.161255 616.311707,295.011536 
	C613.696411,294.985382 611.011414,294.421722 608.492981,293.661163 
	C601.587830,291.575836 599.726135,288.944489 599.715271,281.770935 
	C599.691895,266.282684 599.775513,250.793747 599.651489,235.306412 
	C599.607544,229.811539 596.925842,227.931900 590.125122,228.002716 
	C583.826965,228.068268 581.280762,230.077499 581.253967,235.466888 
	C581.173584,251.621231 581.197510,267.776245 581.227112,283.930939 
	C581.247925,295.268555 586.773621,303.008179 597.394714,306.460693 
	C603.168701,308.337646 609.378723,309.588257 615.430298,309.757690 
	C631.405518,310.205048 647.407166,310.148926 663.386292,309.776062 
	C668.961792,309.646027 674.666504,308.550293 680.024719,306.939514 
	C691.739807,303.417694 697.155762,295.893250 697.243591,283.743134 
	C697.359192,267.757080 697.305847,251.769409 697.242493,235.782745 
	C697.218628,229.775223 694.863403,227.922577 687.820374,228.004974 
	C681.334229,228.080872 679.034241,230.111450 679.021423,235.974182 
	C678.988342,251.129730 679.011108,266.285400 679.006531,281.441010 
	C679.004272,288.750732 676.976440,291.674713 670.016479,293.748779 
	C667.496582,294.499725 664.799133,294.655243 661.251953,295.147156 
M728.709839,302.046997 
	C728.711487,290.224396 728.713989,278.401764 728.714539,266.579163 
	C728.715332,249.261887 728.820740,231.943298 728.607300,214.628647 
	C728.572876,211.838867 727.752502,207.189285 726.188721,206.658218 
	C722.363281,205.359100 717.659119,205.123215 713.781677,206.185577 
	C712.011475,206.670563 710.371399,211.221512 710.348877,213.942184 
	C710.106750,243.246964 710.169739,272.554596 710.223206,301.861298 
	C710.235046,308.343323 711.876343,310.005676 717.931702,310.387695 
	C725.941406,310.893036 727.547546,309.781403 728.709839,302.046997 
M742.089478,222.521561 
	C742.090088,248.802628 742.008423,275.084351 742.215454,301.363800 
	C742.236633,304.060425 743.449280,308.607910 745.037292,309.063873 
	C748.940552,310.184723 753.654175,310.256927 757.488403,309.026398 
	C759.168152,308.487305 760.276306,303.748779 760.312988,300.899994 
	C760.557495,281.943939 760.442505,262.983215 760.442566,244.024002 
	C760.442627,233.712296 760.487183,223.400238 760.410339,213.089081 
	C760.385010,209.685547 759.975647,206.406693 755.797974,205.278397 
	C746.601807,202.794754 742.110657,206.116119 742.088196,215.544724 
	C742.083435,217.540741 742.088501,219.536774 742.089478,222.521561 
z"/>
<path fill="#030303" opacity="1.000000" stroke="none" 
	d="
M205.458984,75.431908 
	C235.788559,73.744560 264.129730,79.709976 291.164581,92.376122 
	C295.000092,94.173111 295.985931,96.057365 294.621155,100.447021 
	C289.495789,116.932137 296.389862,131.238617 311.800598,136.722565 
	C320.603516,139.855103 328.792542,138.132355 336.313507,132.639862 
	C342.202759,128.338989 342.273712,128.401596 347.236053,133.514435 
	C372.280823,159.318741 387.037842,190.382950 392.561188,225.605637 
	C399.935883,272.634521 390.478851,316.391022 363.555908,355.799408 
	C337.790100,393.514069 302.078308,417.697876 257.969757,428.758484 
	C219.017426,438.526154 180.843201,434.440125 144.463715,417.513306 
	C93.373596,393.741821 59.759670,354.531647 45.095135,300.051575 
	C33.103382,255.501099 37.540230,211.987045 59.264988,171.235626 
	C79.767159,132.777527 110.574379,105.002792 151.519363,88.925644 
	C168.802048,82.139549 186.458069,77.131454 205.458984,75.431908 
M145.336517,266.159119 
	C140.349731,260.636658 134.275894,255.701843 134.074066,247.386429 
	C133.900330,240.229126 133.856857,233.059128 134.077484,225.904678 
	C134.264420,219.842682 135.856613,218.520325 142.090530,218.253784 
	C143.420273,218.196930 144.756500,218.191711 146.086075,218.248413 
	C152.232208,218.510590 153.752609,219.828537 154.068619,225.953644 
	C154.463394,233.605484 154.906372,241.280289 154.714142,248.929749 
	C154.522263,256.564636 157.236130,262.356018 163.168030,267.096436 
	C166.126801,269.460907 168.082687,269.404388 170.866013,266.894623 
	C179.815094,258.825195 185.863312,249.617538 184.559647,236.875244 
	C184.239838,233.749283 184.643936,230.551285 184.685150,227.386017 
	C184.869522,213.228195 184.965469,199.068253 185.330490,184.915176 
	C185.370667,183.357483 186.836609,180.587326 187.801254,180.515060 
	C192.416504,180.169357 197.143173,180.197327 201.703888,180.905869 
	C203.099548,181.122696 204.804565,183.796402 205.126022,185.570068 
	C205.833557,189.473862 205.797394,193.518967 205.974075,197.510422 
	C206.127350,200.973236 207.291855,203.233643 211.300812,203.146164 
	C213.616531,203.095627 215.950394,203.766006 218.262711,203.692276 
	C222.698120,203.550842 224.126755,205.820374 224.026031,209.868179 
	C223.939102,213.362152 224.587967,216.932419 224.087112,220.348068 
	C221.935974,235.018478 232.949524,241.185471 242.466858,248.854843 
	C243.326019,235.235138 243.153259,221.765488 243.370789,208.302139 
	C243.628998,192.320221 244.003052,176.333115 244.773773,160.369812 
	C245.108673,153.433533 246.305588,152.900909 253.152924,152.806549 
	C256.739532,152.757141 261.005798,153.654099 263.771088,152.056702 
	C270.311951,148.278198 274.923065,142.652786 274.030304,134.151703 
	C273.456635,128.689178 273.045929,123.195816 272.889343,117.706940 
	C272.717865,111.696175 269.799255,108.560989 264.077545,106.827644 
	C239.967239,99.523575 215.600494,96.295647 190.721954,102.011131 
	C130.538498,115.837418 87.888184,149.811264 69.269333,210.082123 
	C59.626423,241.297058 60.543320,272.799805 71.005646,303.873322 
	C71.636101,305.745819 72.757698,307.452972 74.235306,310.404785 
	C81.810471,301.470764 88.705269,293.634705 95.180855,285.466278 
	C96.567566,283.717102 96.803459,280.783875 96.936806,278.361267 
	C97.431099,269.380737 97.697960,260.386810 97.981018,251.395752 
	C98.360367,239.346313 98.833702,239.101105 110.964180,238.890121 
	C116.197044,238.799103 117.796104,241.243042 117.794075,245.745041 
	C117.791077,252.408600 117.550316,259.075958 117.708153,265.734650 
	C117.887711,273.310150 115.194267,279.370422 110.171165,285.115417 
	C100.757240,295.882233 91.920853,307.160583 83.044556,318.384552 
	C81.518829,320.313843 79.554512,323.648132 80.255814,325.265259 
	C82.555412,330.567719 85.990196,335.377838 89.376259,341.023407 
	C105.178200,321.369049 120.009506,302.921936 134.958023,284.329071 
	C138.593063,287.629028 141.419556,290.205139 144.257065,292.769073 
	C153.892776,301.475830 153.741638,301.334686 162.554382,291.692596 
	C165.562912,288.400940 165.191803,286.197968 162.335739,283.380920 
	C156.761520,277.882904 151.324905,272.245392 145.336517,266.159119 
M306.295258,377.762604 
	C306.735260,378.451233 307.309692,379.790863 307.595337,379.731873 
	C312.705841,378.676697 320.992981,368.293823 320.983612,362.937988 
	C320.865875,295.660431 320.724640,228.382858 320.555084,161.105392 
	C320.547882,158.241394 320.207581,155.378235 319.950836,151.406952 
	C316.225830,155.374512 313.401642,158.391769 310.567200,161.399353 
	C306.808319,165.387833 304.715363,169.730164 304.800507,175.599579 
	C305.049164,192.744583 304.407715,209.901077 304.560272,227.049133 
	C305.004669,277.000946 305.665955,326.950806 306.295258,377.762604 
M369.586639,276.011627 
	C374.072449,242.635742 368.521820,211.066971 353.364014,180.950684 
	C344.407471,185.588531 343.774139,193.084259 343.793701,200.996231 
	C343.901123,244.437546 343.932892,287.879028 344.019104,331.320435 
	C344.024231,333.901093 344.276489,336.481293 344.413727,339.061707 
	C344.867218,339.133270 345.320709,339.204803 345.774200,339.276367 
	C358.581909,320.407349 366.128387,299.478912 369.586639,276.011627 
M206.001617,246.563019 
	C206.154495,293.211304 206.252701,339.859924 206.524826,386.507538 
	C206.561584,392.809753 207.175095,399.149200 208.064346,405.394104 
	C208.897659,411.246185 213.849609,409.653290 217.626282,409.800842 
	C221.682205,409.959320 221.980011,407.070007 222.009384,404.059723 
	C222.072784,397.562042 222.202179,391.064209 222.188156,384.566711 
	C222.100433,343.915588 222.038025,303.264252 221.835831,262.613647 
	C221.776672,250.720322 215.399887,240.599503 206.001617,237.114182 
	C206.001617,240.029785 206.001617,242.808243 206.001617,246.563019 
M260.846436,330.500031 
	C260.846436,306.449097 260.846436,282.398193 260.846436,258.347260 
	C251.504074,263.628937 245.999283,270.264282 245.931519,280.467194 
	C245.701599,315.091736 245.271240,349.714996 245.051620,384.339600 
	C245.015823,389.981750 245.432343,395.656311 246.125275,401.255829 
	C246.338058,402.975372 247.922333,405.611755 249.297852,405.912811 
	C255.273926,407.220886 259.529816,403.870605 260.223724,397.891785 
	C260.529999,395.252960 260.716064,392.585052 260.726196,389.929443 
	C260.800476,370.453125 260.816315,350.976593 260.846436,330.500031 
M171.001297,349.497925 
	C171.001297,339.231232 171.001297,328.964539 171.001297,318.697815 
	C170.433701,318.586456 169.866104,318.475098 169.298492,318.363708 
	C163.028107,323.944122 155.226501,328.529968 155.120468,338.512146 
	C154.929611,356.478912 154.959442,374.448517 155.021988,392.416504 
	C155.027267,393.935516 155.538910,396.304810 156.555130,396.820129 
	C160.861435,399.003845 165.447250,400.636353 171.001297,402.908112 
	C171.001297,384.417969 171.001297,367.458160 171.001297,349.497925 
M284.287170,175.794632 
	C290.350128,168.086075 296.510468,160.449875 302.357330,152.580750 
	C303.119690,151.554688 302.933533,148.667175 302.047394,147.780365 
	C298.833679,144.564301 295.134735,141.833115 291.255768,138.618027 
	C281.794189,149.571915 272.776031,159.988739 263.806854,170.447540 
	C263.184021,171.173828 262.562195,172.208420 262.552948,173.105957 
	C262.460571,182.086746 262.496826,191.068832 262.496826,200.050568 
	C263.089355,200.233749 263.681885,200.416931 264.274414,200.600113 
	C270.800262,192.518784 277.326080,184.437439 284.287170,175.794632 
M133.005005,326.747192 
	C132.757675,324.212433 132.510345,321.677673 132.139587,317.877808 
	C128.368134,322.038483 125.627846,325.305878 122.623840,328.309479 
	C119.376717,331.556183 117.818207,335.250427 117.902695,339.887299 
	C118.044930,347.692108 118.325882,355.538483 117.710495,363.300934 
	C117.072891,371.343658 119.571938,377.203735 126.829163,380.850433 
	C128.407104,381.643280 130.069611,382.267883 131.693161,382.969971 
	C132.173920,381.320068 133.065308,379.671783 133.071976,378.019989 
	C133.139816,361.244202 133.063354,344.467865 133.005005,326.747192 
z"/>
<path fill="#050505" opacity="1.000000" stroke="none" 
	d="
M552.845215,209.079987 
	C567.892883,215.840240 573.563782,228.043015 569.320862,243.808502 
	C567.706787,249.805603 566.159302,251.773407 557.979492,258.054657 
	C563.710999,261.151154 568.549500,264.938843 570.375244,271.491119 
	C572.125122,277.771545 572.029419,283.987122 570.001831,290.128571 
	C566.487183,300.773834 558.236023,305.951294 547.912903,307.933014 
	C541.252991,309.211487 534.379822,309.860809 527.594604,309.919830 
	C501.942810,310.142914 476.287933,310.016693 450.634186,310.005249 
	C442.649628,310.001678 441.044220,308.386871 441.040710,300.338196 
	C441.028381,272.019135 441.028625,243.700089 441.039032,215.381027 
	C441.042145,206.988266 442.563782,205.392105 450.907745,205.420517 
	C478.556061,205.514648 506.207184,205.489624 533.849976,205.947495 
	C540.069824,206.050507 546.260437,207.925537 552.845215,209.079987 
M550.682434,242.773956 
	C550.961121,241.644104 551.279236,240.522339 551.512268,239.383148 
	C553.625122,229.051666 549.450378,223.072235 538.961487,221.633942 
	C535.839233,221.205795 532.659424,221.043655 529.504883,221.031586 
	C514.012085,220.972321 498.518890,221.004700 483.025818,221.004700 
	C475.734528,221.004700 468.443268,221.004700 461.116821,221.004700 
	C461.116821,230.794693 461.116821,240.160873 461.116821,249.784973 
	C486.088135,249.784973 510.717896,250.006042 535.337769,249.610794 
	C540.685547,249.524948 546.975281,249.528091 550.682434,242.773956 
M460.178467,276.523682 
	C460.178467,282.315430 460.178467,288.107178 460.178467,294.221436 
	C462.036926,294.311615 463.483459,294.441254 464.930084,294.442963 
	C483.571838,294.465118 502.213715,294.509521 520.855286,294.454620 
	C527.009521,294.436493 533.176331,294.349152 539.313721,293.939575 
	C548.597839,293.320038 552.021851,289.479034 552.005798,280.275391 
	C551.989624,271.026794 547.653687,266.234558 537.835999,266.086578 
	C512.707092,265.707947 487.572052,265.735565 462.439423,265.620789 
	C461.818420,265.617950 461.196381,265.849182 460.178741,266.049011 
	C460.178741,269.280334 460.178741,272.407837 460.178467,276.523682 
z"/>
<path fill="#040404" opacity="1.000000" stroke="none" 
	d="
M891.674561,287.647217 
	C908.410400,262.234253 924.911011,237.099899 941.473816,212.006592 
	C947.747070,202.502304 959.927124,202.219604 966.411072,211.455032 
	C986.371887,239.886185 1006.271729,268.360199 1026.172974,296.833069 
	C1030.166260,302.546112 1030.076660,305.350220 1025.995972,308.342194 
	C1020.752075,312.187103 1015.165527,311.582336 1011.600708,306.554443 
	C1006.794678,299.775879 1002.295349,292.775238 997.343872,286.107910 
	C996.206970,284.577087 993.771973,283.152832 991.922729,283.138062 
	C967.437439,282.942474 942.949524,282.950745 918.463989,283.131042 
	C916.769104,283.143494 914.502197,284.512695 913.499390,285.948212 
	C908.840393,292.617645 904.592285,299.572205 900.081909,306.348022 
	C896.312134,312.011383 887.880676,312.262085 884.273010,306.488586 
	C883.159607,304.706879 883.276123,301.281097 884.227722,299.269501 
	C886.128296,295.251770 888.995850,291.691406 891.674561,287.647217 
M940.507141,267.485840 
	C954.915161,267.485840 969.323181,267.485840 984.680420,267.485840 
	C974.295166,252.255615 964.437927,237.799698 954.182861,222.760361 
	C944.547180,237.639893 935.150574,252.150238 925.219482,267.485870 
	C930.648010,267.485870 935.079834,267.485870 940.507141,267.485840 
z"/>
<path fill="#030303" opacity="1.000000" stroke="none" 
	d="
M1123.057373,310.509369 
	C1118.548950,309.318146 1114.150146,308.732697 1110.425659,306.828339 
	C1094.178955,298.521393 1078.131348,289.825378 1062.001953,281.288757 
	C1060.284424,280.379700 1058.504395,279.588867 1056.004395,278.381592 
	C1056.004395,286.570648 1056.262207,294.143616 1055.866089,301.682251 
	C1055.725220,304.364075 1054.401123,308.917847 1052.915283,309.225311 
	C1048.769653,310.083191 1044.112549,309.711243 1039.976196,308.618195 
	C1038.728394,308.288483 1037.952881,304.016663 1037.931519,301.542236 
	C1037.766113,282.390259 1037.838013,263.236176 1037.837769,244.082764 
	C1037.837524,233.756226 1037.771118,223.429077 1037.865845,213.103394 
	C1037.926270,206.530258 1039.756226,204.993912 1046.914429,205.002548 
	C1054.081055,205.011200 1055.949951,206.582581 1055.982666,213.102325 
	C1056.053101,227.090973 1056.004395,241.080200 1056.004395,255.069199 
	C1056.004395,256.678131 1056.004395,258.287079 1056.004395,260.688965 
	C1064.072510,256.484436 1071.521240,252.636246 1078.938965,248.729050 
	C1089.655884,243.084015 1100.224243,237.135971 1111.118164,231.858337 
	C1115.313843,229.825684 1120.177368,228.998642 1124.832275,228.144119 
	C1128.191162,227.527527 1131.822021,227.973175 1132.945190,232.056458 
	C1134.040405,236.037964 1130.850220,237.627716 1128.036621,239.115234 
	C1113.517090,246.791077 1098.966797,254.408585 1084.437500,262.065857 
	C1080.374512,264.207184 1076.346069,266.414398 1071.699951,268.915405 
	C1073.748901,270.074707 1075.226440,270.991547 1076.772339,271.772949 
	C1093.368530,280.161957 1109.977539,288.525665 1126.576416,296.909271 
	C1128.203491,297.730988 1130.188965,298.297791 1131.288818,299.593414 
	C1132.660034,301.208862 1134.281494,303.647339 1133.952515,305.380798 
	C1133.620239,307.132233 1131.256470,308.905701 1129.371216,309.832916 
	C1127.700073,310.654846 1125.463867,310.327911 1123.057373,310.509369 
z"/>
<path fill="#070707" opacity="1.000000" stroke="none" 
	d="
M843.837769,295.410095 
	C846.299805,295.155212 848.306702,295.059204 850.270752,294.717346 
	C856.583374,293.618683 858.334229,291.720398 858.389282,286.131653 
	C858.451416,279.829224 857.066895,277.773804 850.522888,276.885986 
	C844.614258,276.084351 838.589600,276.046967 832.610229,275.877563 
	C821.459717,275.561707 810.296875,275.573578 799.156372,275.069031 
	C795.230042,274.891174 791.257751,273.916077 787.473633,272.758453 
	C776.961975,269.542755 772.033264,262.773468 772.065613,252.181091 
	C772.098145,241.529984 777.287720,233.673843 787.787048,231.341064 
	C796.454224,229.415329 805.529541,229.282578 814.437378,228.509186 
	C817.414062,228.250748 820.432129,228.448212 823.431091,228.471207 
	C830.556274,228.525864 834.185791,234.411270 830.490967,240.562881 
	C829.585815,242.069931 826.679016,242.972794 824.631042,243.091324 
	C815.993774,243.591125 807.318970,243.462646 798.686157,244.010071 
	C792.409241,244.408096 790.104126,247.247971 790.206726,252.779541 
	C790.275024,256.462280 791.963379,259.071808 795.427979,259.725769 
	C800.295410,260.644501 805.275513,261.270630 810.223450,261.397888 
	C821.878418,261.697601 833.574402,261.141144 845.191589,261.892242 
	C852.036072,262.334778 859.059570,263.826935 865.471252,266.251831 
	C875.119507,269.900848 877.436096,278.315735 876.976746,287.887756 
	C876.541443,296.958954 871.831238,303.134277 863.561890,305.792664 
	C856.845215,307.951904 849.666748,309.557709 842.650574,309.735931 
	C821.669983,310.268829 800.668518,310.002228 779.675232,309.997528 
	C774.102600,309.996277 772.417114,308.254303 772.457703,302.908722 
	C772.502075,297.062592 773.915894,295.512329 779.889038,295.493561 
	C801.046814,295.427063 822.204956,295.460724 843.837769,295.410095 
z"/>
<path fill="#050505" opacity="1.000000" stroke="none" 
	d="
M661.717346,295.114807 
	C664.799133,294.655243 667.496582,294.499725 670.016479,293.748779 
	C676.976440,291.674713 679.004272,288.750732 679.006531,281.441010 
	C679.011108,266.285400 678.988342,251.129730 679.021423,235.974182 
	C679.034241,230.111450 681.334229,228.080872 687.820374,228.004974 
	C694.863403,227.922577 697.218628,229.775223 697.242493,235.782745 
	C697.305847,251.769409 697.359192,267.757080 697.243591,283.743134 
	C697.155762,295.893250 691.739807,303.417694 680.024719,306.939514 
	C674.666504,308.550293 668.961792,309.646027 663.386292,309.776062 
	C647.407166,310.148926 631.405518,310.205048 615.430298,309.757690 
	C609.378723,309.588257 603.168701,308.337646 597.394714,306.460693 
	C586.773621,303.008179 581.247925,295.268555 581.227112,283.930939 
	C581.197510,267.776245 581.173584,251.621231 581.253967,235.466888 
	C581.280762,230.077499 583.826965,228.068268 590.125122,228.002716 
	C596.925842,227.931900 599.607544,229.811539 599.651489,235.306412 
	C599.775513,250.793747 599.691895,266.282684 599.715271,281.770935 
	C599.726135,288.944489 601.587830,291.575836 608.492981,293.661163 
	C611.011414,294.421722 613.696411,294.985382 616.311707,295.011536 
	C631.290771,295.161255 646.271667,295.122162 661.717346,295.114807 
z"/>
<path fill="#090909" opacity="1.000000" stroke="none" 
	d="
M728.706360,302.490021 
	C727.547546,309.781403 725.941406,310.893036 717.931702,310.387695 
	C711.876343,310.005676 710.235046,308.343323 710.223206,301.861298 
	C710.169739,272.554596 710.106750,243.246964 710.348877,213.942184 
	C710.371399,211.221512 712.011475,206.670563 713.781677,206.185577 
	C717.659119,205.123215 722.363281,205.359100 726.188721,206.658218 
	C727.752502,207.189285 728.572876,211.838867 728.607300,214.628647 
	C728.820740,231.943298 728.715332,249.261887 728.714539,266.579163 
	C728.713989,278.401764 728.711487,290.224396 728.706360,302.490021 
z"/>
<path fill="#030303" opacity="1.000000" stroke="none" 
	d="
M742.089294,222.027191 
	C742.088501,219.536774 742.083435,217.540741 742.088196,215.544724 
	C742.110657,206.116119 746.601807,202.794754 755.797974,205.278397 
	C759.975647,206.406693 760.385010,209.685547 760.410339,213.089081 
	C760.487183,223.400238 760.442627,233.712296 760.442566,244.024002 
	C760.442505,262.983215 760.557495,281.943939 760.312988,300.899994 
	C760.276306,303.748779 759.168152,308.487305 757.488403,309.026398 
	C753.654175,310.256927 748.940552,310.184723 745.037292,309.063873 
	C743.449280,308.607910 742.236633,304.060425 742.215454,301.363800 
	C742.008423,275.084351 742.090088,248.802628 742.089294,222.027191 
z"/>
<path fill="#FEFEFE" opacity="1.000000" stroke="none" 
	d="
M145.583923,266.412384 
	C151.324905,272.245392 156.761520,277.882904 162.335739,283.380920 
	C165.191803,286.197968 165.562912,288.400940 162.554382,291.692596 
	C153.741638,301.334686 153.892776,301.475830 144.257065,292.769073 
	C141.419556,290.205139 138.593063,287.629028 134.958023,284.329071 
	C120.009506,302.921936 105.178200,321.369049 89.376259,341.023407 
	C85.990196,335.377838 82.555412,330.567719 80.255814,325.265259 
	C79.554512,323.648132 81.518829,320.313843 83.044556,318.384552 
	C91.920853,307.160583 100.757240,295.882233 110.171165,285.115417 
	C115.194267,279.370422 117.887711,273.310150 117.708153,265.734650 
	C117.550316,259.075958 117.791077,252.408600 117.794075,245.745041 
	C117.796104,241.243042 116.197044,238.799103 110.964180,238.890121 
	C98.833702,239.101105 98.360367,239.346313 97.981018,251.395752 
	C97.697960,260.386810 97.431099,269.380737 96.936806,278.361267 
	C96.803459,280.783875 96.567566,283.717102 95.180855,285.466278 
	C88.705269,293.634705 81.810471,301.470764 74.235306,310.404785 
	C72.757698,307.452972 71.636101,305.745819 71.005646,303.873322 
	C60.543320,272.799805 59.626423,241.297058 69.269333,210.082123 
	C87.888184,149.811264 130.538498,115.837418 190.721954,102.011131 
	C215.600494,96.295647 239.967239,99.523575 264.077545,106.827644 
	C269.799255,108.560989 272.717865,111.696175 272.889343,117.706940 
	C273.045929,123.195816 273.456635,128.689178 274.030304,134.151703 
	C274.923065,142.652786 270.311951,148.278198 263.771088,152.056702 
	C261.005798,153.654099 256.739532,152.757141 253.152924,152.806549 
	C246.305588,152.900909 245.108673,153.433533 244.773773,160.369812 
	C244.003052,176.333115 243.628998,192.320221 243.370789,208.302139 
	C243.153259,221.765488 243.326019,235.235138 242.466858,248.854843 
	C232.949524,241.185471 221.935974,235.018478 224.087112,220.348068 
	C224.587967,216.932419 223.939102,213.362152 224.026031,209.868179 
	C224.126755,205.820374 222.698120,203.550842 218.262711,203.692276 
	C215.950394,203.766006 213.616531,203.095627 211.300812,203.146164 
	C207.291855,203.233643 206.127350,200.973236 205.974075,197.510422 
	C205.797394,193.518967 205.833557,189.473862 205.126022,185.570068 
	C204.804565,183.796402 203.099548,181.122696 201.703888,180.905869 
	C197.143173,180.197327 192.416504,180.169357 187.801254,180.515060 
	C186.836609,180.587326 185.370667,183.357483 185.330490,184.915176 
	C184.965469,199.068253 184.869522,213.228195 184.685150,227.386017 
	C184.643936,230.551285 184.239838,233.749283 184.559647,236.875244 
	C185.863312,249.617538 179.815094,258.825195 170.866013,266.894623 
	C168.082687,269.404388 166.126801,269.460907 163.168030,267.096436 
	C157.236130,262.356018 154.522263,256.564636 154.714142,248.929749 
	C154.906372,241.280289 154.463394,233.605484 154.068619,225.953644 
	C153.752609,219.828537 152.232208,218.510590 146.086075,218.248413 
	C144.756500,218.191711 143.420273,218.196930 142.090530,218.253784 
	C135.856613,218.520325 134.264420,219.842682 134.077484,225.904678 
	C133.856857,233.059128 133.900330,240.229126 134.074066,247.386429 
	C134.275894,255.701843 140.349731,260.636658 145.583923,266.412384 
z"/>
<path fill="#FDFDFD" opacity="1.000000" stroke="none" 
	d="
M306.268738,377.332031 
	C305.665955,326.950806 305.004669,277.000946 304.560272,227.049133 
	C304.407715,209.901077 305.049164,192.744583 304.800507,175.599579 
	C304.715363,169.730164 306.808319,165.387833 310.567200,161.399353 
	C313.401642,158.391769 316.225830,155.374512 319.950836,151.406952 
	C320.207581,155.378235 320.547882,158.241394 320.555084,161.105392 
	C320.724640,228.382858 320.865875,295.660431 320.983612,362.937988 
	C320.992981,368.293823 312.705841,378.676697 307.595337,379.731873 
	C307.309692,379.790863 306.735260,378.451233 306.268738,377.332031 
z"/>
<path fill="#FDFDFD" opacity="1.000000" stroke="none" 
	d="
M369.482910,276.440308 
	C366.128387,299.478912 358.581909,320.407349 345.774200,339.276367 
	C345.320709,339.204803 344.867218,339.133270 344.413727,339.061707 
	C344.276489,336.481293 344.024231,333.901093 344.019104,331.320435 
	C343.932892,287.879028 343.901123,244.437546 343.793701,200.996231 
	C343.774139,193.084259 344.407471,185.588531 353.364014,180.950684 
	C368.521820,211.066971 374.072449,242.635742 369.482910,276.440308 
z"/>
<path fill="#FDFDFD" opacity="1.000000" stroke="none" 
	d="
M206.001617,246.074860 
	C206.001617,242.808243 206.001617,240.029785 206.001617,237.114182 
	C215.399887,240.599503 221.776672,250.720322 221.835831,262.613647 
	C222.038025,303.264252 222.100433,343.915588 222.188156,384.566711 
	C222.202179,391.064209 222.072784,397.562042 222.009384,404.059723 
	C221.980011,407.070007 221.682205,409.959320 217.626282,409.800842 
	C213.849609,409.653290 208.897659,411.246185 208.064346,405.394104 
	C207.175095,399.149200 206.561584,392.809753 206.524826,386.507538 
	C206.252701,339.859924 206.154495,293.211304 206.001617,246.074860 
z"/>
<path fill="#F9F9F9" opacity="1.000000" stroke="none" 
	d="
M260.848511,331.000061 
	C260.816315,350.976593 260.800476,370.453125 260.726196,389.929443 
	C260.716064,392.585052 260.529999,395.252960 260.223724,397.891785 
	C259.529816,403.870605 255.273926,407.220886 249.297852,405.912811 
	C247.922333,405.611755 246.338058,402.975372 246.125275,401.255829 
	C245.432343,395.656311 245.015823,389.981750 245.051620,384.339600 
	C245.271240,349.714996 245.701599,315.091736 245.931519,280.467194 
	C245.999283,270.264282 251.504074,263.628937 260.846436,258.347260 
	C260.846436,282.398193 260.846436,306.449097 260.848511,331.000061 
z"/>
<path fill="#FCFCFC" opacity="1.000000" stroke="none" 
	d="
M171.001297,349.998138 
	C171.001297,367.458160 171.001297,384.417969 171.001297,402.908112 
	C165.447250,400.636353 160.861435,399.003845 156.555130,396.820129 
	C155.538910,396.304810 155.027267,393.935516 155.021988,392.416504 
	C154.959442,374.448517 154.929611,356.478912 155.120468,338.512146 
	C155.226501,328.529968 163.028107,323.944122 169.298492,318.363708 
	C169.866104,318.475098 170.433701,318.586456 171.001297,318.697815 
	C171.001297,328.964539 171.001297,339.231232 171.001297,349.998138 
z"/>
<path fill="#FBFBFB" opacity="1.000000" stroke="none" 
	d="
M284.069519,176.075378 
	C277.326080,184.437439 270.800262,192.518784 264.274414,200.600113 
	C263.681885,200.416931 263.089355,200.233749 262.496826,200.050568 
	C262.496826,191.068832 262.460571,182.086746 262.552948,173.105957 
	C262.562195,172.208420 263.184021,171.173828 263.806854,170.447540 
	C272.776031,159.988739 281.794189,149.571915 291.255768,138.618027 
	C295.134735,141.833115 298.833679,144.564301 302.047394,147.780365 
	C302.933533,148.667175 303.119690,151.554688 302.357330,152.580750 
	C296.510468,160.449875 290.350128,168.086075 284.069519,176.075378 
z"/>
<path fill="#FDFDFD" opacity="1.000000" stroke="none" 
	d="
M133.016174,327.219421 
	C133.063354,344.467865 133.139816,361.244202 133.071976,378.019989 
	C133.065308,379.671783 132.173920,381.320068 131.693161,382.969971 
	C130.069611,382.267883 128.407104,381.643280 126.829163,380.850433 
	C119.571938,377.203735 117.072891,371.343658 117.710495,363.300934 
	C118.325882,355.538483 118.044930,347.692108 117.902695,339.887299 
	C117.818207,335.250427 119.376717,331.556183 122.623840,328.309479 
	C125.627846,325.305878 128.368134,322.038483 132.139587,317.877808 
	C132.510345,321.677673 132.757675,324.212433 133.016174,327.219421 
z"/>
<path fill="#FCFCFC" opacity="1.000000" stroke="none" 
	d="
M550.470459,243.107330 
	C546.975281,249.528091 540.685547,249.524948 535.337769,249.610794 
	C510.717896,250.006042 486.088135,249.784973 461.116821,249.784973 
	C461.116821,240.160873 461.116821,230.794693 461.116821,221.004700 
	C468.443268,221.004700 475.734528,221.004700 483.025818,221.004700 
	C498.518890,221.004700 514.012085,220.972321 529.504883,221.031586 
	C532.659424,221.043655 535.839233,221.205795 538.961487,221.633942 
	C549.450378,223.072235 553.625122,229.051666 551.512268,239.383148 
	C551.279236,240.522339 550.961121,241.644104 550.470459,243.107330 
z"/>
<path fill="#FEFEFE" opacity="1.000000" stroke="none" 
	d="
M460.178589,276.029510 
	C460.178741,272.407837 460.178741,269.280334 460.178741,266.049011 
	C461.196381,265.849182 461.818420,265.617950 462.439423,265.620789 
	C487.572052,265.735565 512.707092,265.707947 537.835999,266.086578 
	C547.653687,266.234558 551.989624,271.026794 552.005798,280.275391 
	C552.021851,289.479034 548.597839,293.320038 539.313721,293.939575 
	C533.176331,294.349152 527.009521,294.436493 520.855286,294.454620 
	C502.213715,294.509521 483.571838,294.465118 464.930084,294.442963 
	C463.483459,294.441254 462.036926,294.311615 460.178467,294.221436 
	C460.178467,288.107178 460.178467,282.315430 460.178589,276.029510 
z"/>
<path fill="#FDFDFD" opacity="1.000000" stroke="none" 
	d="
M940.009399,267.485840 
	C935.079834,267.485870 930.648010,267.485870 925.219482,267.485870 
	C935.150574,252.150238 944.547180,237.639893 954.182861,222.760361 
	C964.437927,237.799698 974.295166,252.255615 984.680420,267.485840 
	C969.323181,267.485840 954.915161,267.485840 940.009399,267.485840 
z"/>
</svg>